<svg xmlns="http://www.w3.org/2000/svg" viewBox="0 0 200 200" fill="none">
  <defs>
    <linearGradient id="safetyEmpGrad" x1="0%" y1="0%" x2="0%" y2="100%">
      <stop offset="0%" style="stop-color:#4caf50"/>
      <stop offset="100%" style="stop-color:#2e7d32"/>
    </linearGradient>
  </defs>

  <!-- Background Circle -->
  <circle cx="100" cy="100" r="90" fill="#e8f5e9"/>

  <!-- Main Shield -->
  <path d="M100 25 L160 50 L160 100 C160 145 130 175 100 190 C70 175 40 145 40 100 L40 50 Z"
        fill="url(#safetyEmpGrad)"/>

  <!-- Inner Shield Highlight -->
  <path d="M100 40 L145 60 L145 98 C145 135 120 160 100 172 C80 160 55 135 55 98 L55 60 Z"
        fill="#81c784" opacity="0.5"/>

  <!-- Checkmark -->
  <path d="M70 105 L90 125 L135 75"
        stroke="#fff" stroke-width="10" stroke-linecap="round" stroke-linejoin="round" fill="none"/>

  <!-- Guardian Angels/Protection Symbols -->
  <g fill="#a5d6a7" opacity="0.5">
    <circle cx="30" cy="50" r="15"/>
    <circle cx="170" cy="50" r="15"/>
    <circle cx="25" cy="150" r="12"/>
    <circle cx="175" cy="150" r="12"/>
  </g>

  <!-- Stars -->
  <g fill="#ffc107">
    <path d="M30 80 l1.5 4 4 1.5 -4 1.5 -1.5 4 -1.5 -4 -4 -1.5 4 -1.5z"/>
    <path d="M170 80 l1.5 4 4 1.5 -4 1.5 -1.5 4 -1.5 -4 -4 -1.5 4 -1.5z"/>
    <path d="M100 10 l1 3 3 1 -3 1 -1 3 -1 -3 -3 -1 3 -1z"/>
  </g>
</svg>
