<svg xmlns="http://www.w3.org/2000/svg" viewBox="0 0 64 64">
  <defs>
    <linearGradient id="faviconGrad" x1="0%" y1="0%" x2="100%" y2="100%">
      <stop offset="0%" style="stop-color:#667eea"/>
      <stop offset="100%" style="stop-color:#764ba2"/>
    </linearGradient>
  </defs>
  <!-- Circle Background -->
  <circle cx="32" cy="32" r="30" fill="url(#faviconGrad)"/>

  <!-- Tent/Festival Icon -->
  <path d="M32 12 L48 44 L16 44 Z" fill="none" stroke="#fff" stroke-width="3" stroke-linejoin="round"/>
  <path d="M32 12 L32 44" stroke="#fff" stroke-width="2"/>
  <path d="M24 44 L32 32 L40 44" fill="none" stroke="#fff" stroke-width="2"/>

  <!-- Musical Note -->
  <g transform="translate(38, 18) scale(0.5)">
    <ellipse cx="8" cy="24" rx="6" ry="5" fill="#fff"/>
    <rect x="12" y="0" width="3" height="24" fill="#fff"/>
    <path d="M15 0 Q24 -2 24 8 Q24 16 15 14" fill="none" stroke="#fff" stroke-width="2.5"/>
  </g>

  <!-- Star -->
  <path d="M14 20 l1.5 4 4 1.5 -4 1.5 -1.5 4 -1.5 -4 -4 -1.5 4 -1.5z" fill="#ffc107"/>
</svg>
