<svg xmlns="http://www.w3.org/2000/svg" style="display: none;">
  <!-- World Music -->
  <symbol id="genre-world" viewBox="0 0 64 64">
    <circle cx="32" cy="32" r="28" fill="none" stroke="currentColor" stroke-width="3"/>
    <ellipse cx="32" cy="32" rx="28" ry="12" fill="none" stroke="currentColor" stroke-width="2"/>
    <line x1="32" y1="4" x2="32" y2="60" stroke="currentColor" stroke-width="2"/>
    <path d="M8 20 Q32 28 56 20" fill="none" stroke="currentColor" stroke-width="2"/>
    <path d="M8 44 Q32 36 56 44" fill="none" stroke="currentColor" stroke-width="2"/>
  </symbol>

  <!-- Electronic/EDM -->
  <symbol id="genre-electronic" viewBox="0 0 64 64">
    <rect x="8" y="24" width="6" height="20" rx="2" fill="currentColor"/>
    <rect x="18" y="16" width="6" height="36" rx="2" fill="currentColor"/>
    <rect x="28" y="20" width="6" height="28" rx="2" fill="currentColor"/>
    <rect x="38" y="12" width="6" height="40" rx="2" fill="currentColor"/>
    <rect x="48" y="18" width="6" height="32" rx="2" fill="currentColor"/>
    <circle cx="32" cy="8" r="4" fill="currentColor"/>
  </symbol>

  <!-- Rock -->
  <symbol id="genre-rock" viewBox="0 0 64 64">
    <path d="M20 56 L20 24 L32 8 L44 24 L44 56" fill="none" stroke="currentColor" stroke-width="3" stroke-linejoin="round"/>
    <line x1="20" y1="32" x2="44" y2="32" stroke="currentColor" stroke-width="2"/>
    <line x1="20" y1="40" x2="44" y2="40" stroke="currentColor" stroke-width="2"/>
    <line x1="20" y1="48" x2="44" y2="48" stroke="currentColor" stroke-width="2"/>
    <circle cx="32" cy="20" r="4" fill="currentColor"/>
    <path d="M8 60 L56 60" stroke="currentColor" stroke-width="3" stroke-linecap="round"/>
  </symbol>

  <!-- Jazz -->
  <symbol id="genre-jazz" viewBox="0 0 64 64">
    <ellipse cx="18" cy="50" rx="10" ry="8" fill="currentColor"/>
    <path d="M28 50 L28 12" stroke="currentColor" stroke-width="4"/>
    <path d="M28 12 Q40 8 48 18 Q56 28 46 36 Q36 44 28 36" fill="none" stroke="currentColor" stroke-width="3"/>
    <circle cx="44" cy="22" r="3" fill="currentColor"/>
  </symbol>

  <!-- Folk/Acoustic -->
  <symbol id="genre-folk" viewBox="0 0 64 64">
    <ellipse cx="32" cy="44" rx="18" ry="14" fill="none" stroke="currentColor" stroke-width="3"/>
    <ellipse cx="32" cy="44" rx="6" ry="5" fill="currentColor"/>
    <line x1="32" y1="30" x2="32" y2="8" stroke="currentColor" stroke-width="4"/>
    <rect x="26" y="4" width="12" height="8" fill="none" stroke="currentColor" stroke-width="2"/>
    <g stroke="currentColor" stroke-width="1">
      <line x1="29" y1="12" x2="29" y2="30"/>
      <line x1="32" y1="12" x2="32" y2="30"/>
      <line x1="35" y1="12" x2="35" y2="30"/>
    </g>
  </symbol>

  <!-- Pop -->
  <symbol id="genre-pop" viewBox="0 0 64 64">
    <polygon points="32,4 38,22 58,24 42,38 48,56 32,46 16,56 22,38 6,24 26,22" fill="none" stroke="currentColor" stroke-width="3" stroke-linejoin="round"/>
    <circle cx="32" cy="32" r="8" fill="currentColor"/>
  </symbol>

  <!-- Hip Hop -->
  <symbol id="genre-hiphop" viewBox="0 0 64 64">
    <circle cx="32" cy="32" r="24" fill="none" stroke="currentColor" stroke-width="3"/>
    <circle cx="32" cy="32" r="16" fill="none" stroke="currentColor" stroke-width="2"/>
    <circle cx="32" cy="32" r="8" fill="none" stroke="currentColor" stroke-width="2"/>
    <circle cx="32" cy="32" r="4" fill="currentColor"/>
    <path d="M56 32 L64 28 L64 36 Z" fill="currentColor"/>
  </symbol>

  <!-- Classical -->
  <symbol id="genre-classical" viewBox="0 0 64 64">
    <path d="M20 56 L20 20 Q20 8 32 8 Q44 8 44 20 L44 24" fill="none" stroke="currentColor" stroke-width="3"/>
    <ellipse cx="16" cy="56" rx="8" ry="6" fill="currentColor"/>
    <path d="M44 24 Q52 28 52 36 Q52 44 44 48 L44 56" fill="none" stroke="currentColor" stroke-width="3"/>
    <ellipse cx="40" cy="56" rx="8" ry="6" fill="currentColor"/>
  </symbol>

  <!-- Indie/Alternative -->
  <symbol id="genre-indie" viewBox="0 0 64 64">
    <path d="M12 48 L24 16 L36 48 L48 16 L60 48" fill="none" stroke="currentColor" stroke-width="3" stroke-linecap="round" stroke-linejoin="round"/>
    <circle cx="18" cy="32" r="4" fill="currentColor"/>
    <circle cx="42" cy="32" r="4" fill="currentColor"/>
    <path d="M4 56 L60 56" stroke="currentColor" stroke-width="2" stroke-dasharray="4,4"/>
  </symbol>

  <!-- Reggae -->
  <symbol id="genre-reggae" viewBox="0 0 64 64">
    <rect x="12" y="8" width="40" height="48" rx="4" fill="none" stroke="currentColor" stroke-width="3"/>
    <line x1="12" y1="20" x2="52" y2="20" stroke="currentColor" stroke-width="8"/>
    <line x1="12" y1="32" x2="52" y2="32" stroke="currentColor" stroke-width="8"/>
    <line x1="12" y1="44" x2="52" y2="44" stroke="currentColor" stroke-width="8"/>
    <circle cx="32" cy="32" r="6" fill="currentColor"/>
  </symbol>

  <!-- Metal -->
  <symbol id="genre-metal" viewBox="0 0 64 64">
    <path d="M16 8 L16 40 Q16 56 32 56 Q48 56 48 40 L48 8" fill="none" stroke="currentColor" stroke-width="3"/>
    <path d="M16 8 L8 4 L8 16 L16 12" fill="currentColor"/>
    <path d="M48 8 L56 4 L56 16 L48 12" fill="currentColor"/>
    <path d="M24 24 L32 40 L40 24" fill="none" stroke="currentColor" stroke-width="3" stroke-linejoin="round"/>
  </symbol>

  <!-- Country -->
  <symbol id="genre-country" viewBox="0 0 64 64">
    <ellipse cx="32" cy="52" rx="24" ry="8" fill="none" stroke="currentColor" stroke-width="3"/>
    <path d="M8 52 Q8 32 32 32 Q56 32 56 52" fill="none" stroke="currentColor" stroke-width="3"/>
    <line x1="32" y1="32" x2="32" y2="12" stroke="currentColor" stroke-width="3"/>
    <path d="M20 20 L32 12 L44 20" fill="none" stroke="currentColor" stroke-width="3"/>
  </symbol>

  <!-- Latin -->
  <symbol id="genre-latin" viewBox="0 0 64 64">
    <ellipse cx="20" cy="40" rx="12" ry="16" fill="none" stroke="currentColor" stroke-width="3"/>
    <ellipse cx="44" cy="40" rx="12" ry="16" fill="none" stroke="currentColor" stroke-width="3"/>
    <path d="M20 24 L20 8" stroke="currentColor" stroke-width="3"/>
    <path d="M44 24 L44 8" stroke="currentColor" stroke-width="3"/>
    <path d="M12 8 L52 8" stroke="currentColor" stroke-width="3"/>
    <g fill="currentColor">
      <circle cx="20" cy="40" r="3"/>
      <circle cx="44" cy="40" r="3"/>
    </g>
  </symbol>

  <!-- Ambient/Chill -->
  <symbol id="genre-ambient" viewBox="0 0 64 64">
    <circle cx="32" cy="32" r="8" fill="currentColor" opacity="0.3"/>
    <circle cx="32" cy="32" r="14" fill="none" stroke="currentColor" stroke-width="2" opacity="0.5"/>
    <circle cx="32" cy="32" r="20" fill="none" stroke="currentColor" stroke-width="2" opacity="0.4"/>
    <circle cx="32" cy="32" r="26" fill="none" stroke="currentColor" stroke-width="2" opacity="0.3"/>
    <path d="M32 4 L34 10 L40 10 L35 14 L37 20 L32 16 L27 20 L29 14 L24 10 L30 10 Z" fill="currentColor"/>
  </symbol>

  <!-- Techno -->
  <symbol id="genre-techno" viewBox="0 0 64 64">
    <rect x="8" y="8" width="48" height="48" rx="4" fill="none" stroke="currentColor" stroke-width="3"/>
    <g fill="currentColor">
      <rect x="16" y="16" width="8" height="8"/>
      <rect x="28" y="16" width="8" height="8"/>
      <rect x="40" y="16" width="8" height="8"/>
      <rect x="16" y="28" width="8" height="8"/>
      <rect x="28" y="28" width="8" height="8"/>
      <rect x="40" y="28" width="8" height="8"/>
      <rect x="16" y="40" width="8" height="8"/>
      <rect x="28" y="40" width="8" height="8"/>
      <rect x="40" y="40" width="8" height="8"/>
    </g>
  </symbol>

  <!-- Bass/Dubstep -->
  <symbol id="genre-bass" viewBox="0 0 64 64">
    <path d="M8 32 Q16 8 32 32 Q48 56 56 32" fill="none" stroke="currentColor" stroke-width="4"/>
    <path d="M8 40 Q16 20 32 40 Q48 60 56 40" fill="none" stroke="currentColor" stroke-width="3" opacity="0.6"/>
    <path d="M8 48 Q16 32 32 48 Q48 64 56 48" fill="none" stroke="currentColor" stroke-width="2" opacity="0.3"/>
    <circle cx="32" cy="12" r="4" fill="currentColor"/>
  </symbol>

  <!-- Multi-genre/Festival -->
  <symbol id="genre-multi" viewBox="0 0 64 64">
    <polygon points="32,4 40,24 60,24 44,38 50,58 32,46 14,58 20,38 4,24 24,24" fill="none" stroke="currentColor" stroke-width="2"/>
    <circle cx="32" cy="32" r="10" fill="none" stroke="currentColor" stroke-width="2"/>
    <path d="M27 32 L32 27 L37 32 L32 37 Z" fill="currentColor"/>
  </symbol>
</svg>
